# xmcd CD database file
#
# Track frame offsets:
#	150
#	13293
#	24178
#	32282
#	47597
#	64982
#	79207
#	90913
#	107644
#	116259
#	141170
#	157867
#
# Disc length: 2311 seconds
#
# Revision: 0
# Processed by: cddbd v1.4PL0 Copyright (c) Steve Scherf et al.
# Submitted via: Feurio! 1.63 - http://www.feurio.com
#
DISCID=8409050c
DTITLE=Almir Sater - Vários#8409050C0CF5C682
DYEAR=1995
DGENRE=Raiz Brasil
TTITLE0=Benzinho
TTITLE1=Viola de buriti
TTITLE2=Beira-Mar
TTITLE3=Terra de Sonhos
TTITLE4=Vaso quebrado
TTITLE5=Na cumbuca
TTITLE6=O ganso
TTITLE7=Mês de maio
TTITLE8=Jesus menino
TTITLE9=Vida bela, vida
TTITLE10=A saudade é uma estrada longa
TTITLE11=Rasta do adeus
EXTD=
EXTT0=(instrumental)
EXTT1=(instrumental)
EXTT2=
EXTT3=
EXTT4=
EXTT5=
EXTT6=(instrumental)
EXTT7=
EXTT8=
EXTT9=
EXTT10=
EXTT11=
PLAYORDER=
